<svg width="256" height="256" xmlns="http://www.w3.org/2000/svg"><g fill="none" fill-rule="evenodd"><path fill="#A14FE8" d="M0 0h256v256H0z"/><path d="M191.42 50.04a30.05 30.05 0 0 1 30.04 30.04v95.45a30.05 30.05 0 0 1-30.04 30.03h-42.45l-50.14 47.28v-47.28H64.58a30.05 30.05 0 0 1-30.04-30.03V80.08a30.05 30.05 0 0 1 30.04-30.04h126.84Zm0 5.12H64.58a24.93 24.93 0 0 0-24.92 24.92v95.45a24.93 24.93 0 0 0 24.92 24.91h39.37v40.54l42.98-40.54h44.5a24.93 24.93 0 0 0 24.9-24.91V80.08a24.93 24.93 0 0 0-24.9-24.92Z" fill="#FFF" fill-opacity=".4" fill-rule="nonzero"/><g fill="#FFF" fill-opacity=".85" fill-rule="nonzero"><path d="M124.92 87.43h-16.7v31.77H75.44V87.43H58.62v80.8h16.83V134.5h32.76v33.75h16.71zM166.44 86c-17.37 0-28.48 10.33-28.48 24.84 0 11.88 6.27 20.24 27.16 24.74 11.98 2.31 15.61 4.95 15.61 9.68 0 5.94-4.84 9.12-13.3 9.12-8.25 0-17.37-3.73-22.76-9.45l-9.13 13.96c8.03 6.93 19.02 10.78 31.34 10.78 19.02 0 30.56-10.45 30.56-25.95 0-12.42-6.6-20.01-27.48-24.4-12.1-2.32-15.18-4.63-15.18-9.24 0-5.94 4.4-8.8 11.55-8.8 8.57 0 14.73 3.08 19.68 7.04l8.68-13.86C188 89.3 178 86 166.44 86Z"/></g></g></svg>